<svg width="26" height="28" viewBox="0 0 26 28" fill="none" xmlns="http://www.w3.org/2000/svg">
<path fill-rule="evenodd" clip-rule="evenodd" d="M13.0001 7C12.6056 7 12.2858 7.3198 12.2858 7.71429V11.2857H8.71429C8.3198 11.2857 8 11.6054 8 11.9999C8 12.3944 8.3198 12.7142 8.71429 12.7142H12.2858V16.2857C12.2858 16.6802 12.6056 17 13.0001 17C13.3946 17 13.7143 16.6802 13.7143 16.2857V12.7142H17.2857C17.6802 12.7142 18 12.3944 18 11.9999C18 11.6054 17.6802 11.2857 17.2857 11.2857H13.7143V7.71429C13.7143 7.3198 13.3946 7 13.0001 7Z" fill="#FDFDFD"/>
</svg>
