<svg width="16" height="17" viewBox="0 0 16 17" fill="none" xmlns="http://www.w3.org/2000/svg">
<path fill-rule="evenodd" clip-rule="evenodd" d="M7.00208 1.43516C7.30577 1.26015 7.65013 1.16803 8.00065 1.16803C8.35119 1.16803 8.69556 1.26016 8.99926 1.43518C8.99972 1.43544 9.00019 1.43571 9.00065 1.43598L13.6673 4.10264C13.9711 4.27801 14.2233 4.53016 14.3989 4.83381C14.5744 5.13746 14.667 5.48192 14.6673 5.83265V11.1673C14.667 11.5181 14.5744 11.8625 14.3989 12.1662C14.2233 12.4698 13.9711 12.722 13.6673 12.8973L13.6647 12.8988L9.00065 15.564C9.00025 15.5642 8.99985 15.5645 8.99945 15.5647C8.69571 15.7398 8.35126 15.832 8.00065 15.832C7.65005 15.832 7.30562 15.7398 7.00188 15.5647C7.00147 15.5645 7.00106 15.5643 7.00065 15.564L2.33656 12.8988L2.33398 12.8973C2.03025 12.722 1.77796 12.4698 1.60245 12.1662C1.42693 11.8625 1.33434 11.5181 1.33398 11.1673V5.83265C1.33434 5.48192 1.42693 5.13746 1.60245 4.83381C1.77796 4.53016 2.03025 4.27801 2.33398 4.10265L2.33655 4.10116L7.00208 1.43516ZM8.00065 2.50136C7.88363 2.50136 7.76866 2.53217 7.66732 2.59068L7.66475 2.59216L3.00065 5.25735C3.0003 5.25755 2.99995 5.25775 2.9996 5.25795C2.89882 5.31638 2.81511 5.4002 2.7568 5.50107C2.69835 5.6022 2.66749 5.71692 2.66732 5.83372V11.1663C2.66749 11.2831 2.69835 11.3978 2.7568 11.4989C2.81511 11.5998 2.89882 11.6836 2.9996 11.742C2.99995 11.7422 3.0003 11.7424 3.00065 11.7426L7.66732 14.4093C7.76866 14.4678 7.88363 14.4986 8.00065 14.4986C8.11767 14.4986 8.23264 14.4678 8.33398 14.4093L8.33656 14.4078L13.0007 11.7426C13.001 11.7424 13.0014 11.7422 13.0017 11.742C13.1025 11.6836 13.1862 11.5998 13.2445 11.4989C13.303 11.3977 13.3339 11.2829 13.334 11.166V5.83401C13.3339 5.7171 13.303 5.60228 13.2445 5.50107C13.1862 5.4002 13.1025 5.31639 13.0017 5.25796C13.0014 5.25775 13.001 5.25755 13.0007 5.25735L8.33398 2.59069C8.23263 2.53217 8.11768 2.50136 8.00065 2.50136Z" fill="black"/>
<path fill-rule="evenodd" clip-rule="evenodd" d="M1.60338 4.80617C1.78774 4.48746 2.19556 4.37855 2.51426 4.56291L8.00045 7.73648L13.4866 4.56291C13.8053 4.37855 14.2132 4.48746 14.3975 4.80617C14.5819 5.12487 14.473 5.53269 14.1543 5.71705L8.33426 9.08372C8.12775 9.20318 7.87315 9.20318 7.66663 9.08372L1.84663 5.71705C1.52793 5.53269 1.41902 5.12487 1.60338 4.80617Z" fill="black"/>
<path fill-rule="evenodd" clip-rule="evenodd" d="M8.00065 7.83331C8.36884 7.83331 8.66732 8.13179 8.66732 8.49998V15.22C8.66732 15.5882 8.36884 15.8866 8.00065 15.8866C7.63246 15.8866 7.33398 15.5882 7.33398 15.22V8.49998C7.33398 8.13179 7.63246 7.83331 8.00065 7.83331Z" fill="black"/>
</svg>
