<svg width="14" height="14" viewBox="0 0 14 14" fill="none" xmlns="http://www.w3.org/2000/svg">
<path d="M7.93933 6.99999L13.466 1.47332C13.5752 1.34579 13.6323 1.18174 13.6258 1.01396C13.6193 0.846172 13.5498 0.687012 13.431 0.568283C13.3123 0.449553 13.1532 0.379998 12.9854 0.373517C12.8176 0.367036 12.6535 0.424107 12.526 0.533325L6.99933 6.05999L1.47266 0.526658C1.34713 0.401122 1.17687 0.330597 0.999331 0.330597C0.821797 0.330597 0.651534 0.401122 0.525998 0.526658C0.400462 0.652194 0.329937 0.822457 0.329937 0.999991C0.329937 1.17753 0.400462 1.34779 0.525998 1.47332L6.05933 6.99999L0.525998 12.5267C0.45621 12.5864 0.39953 12.66 0.359514 12.7427C0.319499 12.8254 0.297012 12.9155 0.293466 13.0073C0.289919 13.0991 0.30539 13.1907 0.338906 13.2762C0.372422 13.3618 0.423261 13.4395 0.488231 13.5044C0.553201 13.5694 0.630899 13.6202 0.716449 13.6538C0.801999 13.6873 0.893554 13.7027 0.985367 13.6992C1.07718 13.6956 1.16727 13.6732 1.24998 13.6331C1.33269 13.5931 1.40623 13.5364 1.466 13.4667L6.99933 7.93999L12.526 13.4667C12.6535 13.5759 12.8176 13.6329 12.9854 13.6265C13.1532 13.62 13.3123 13.5504 13.431 13.4317C13.5498 13.313 13.6193 13.1538 13.6258 12.986C13.6323 12.8182 13.5752 12.6542 13.466 12.5267L7.93933 6.99999Z" fill="black"/>
</svg>
