<svg width="16" height="17" viewBox="0 0 16 17" fill="none" xmlns="http://www.w3.org/2000/svg">
<path fill-rule="evenodd" clip-rule="evenodd" d="M2.66602 3.16665C2.4892 3.16665 2.31964 3.23688 2.19461 3.36191C2.06959 3.48693 1.99935 3.6565 1.99935 3.83331V13.1666C1.99935 13.3435 2.06959 13.513 2.19461 13.6381C2.31964 13.7631 2.4892 13.8333 2.66602 13.8333H13.3327C13.5095 13.8333 13.6791 13.7631 13.8041 13.6381C13.9291 13.513 13.9993 13.3435 13.9993 13.1666V5.83331C13.9993 5.6565 13.9291 5.48693 13.8041 5.36191C13.6791 5.23688 13.5095 5.16665 13.3327 5.16665H7.33268C7.10978 5.16665 6.90163 5.05525 6.77798 4.86978L5.64256 3.16665H2.66602ZM1.2518 2.4191C1.62687 2.04403 2.13558 1.83331 2.66602 1.83331H5.99935C6.22225 1.83331 6.43041 1.94471 6.55405 2.13018L7.68947 3.83331H13.3327C13.8631 3.83331 14.3718 4.04403 14.7469 4.4191C15.122 4.79417 15.3327 5.30288 15.3327 5.83331V13.1666C15.3327 13.6971 15.122 14.2058 14.7469 14.5809C14.3718 14.9559 13.8631 15.1666 13.3327 15.1666H2.66602C2.13558 15.1666 1.62687 14.9559 1.2518 14.5809C0.876729 14.2058 0.666016 13.6971 0.666016 13.1666V3.83331C0.666016 3.30288 0.876729 2.79417 1.2518 2.4191Z" fill="black"/>
<path fill-rule="evenodd" clip-rule="evenodd" d="M8.00065 7.16669C8.36884 7.16669 8.66732 7.46516 8.66732 7.83335V11.8334C8.66732 12.2015 8.36884 12.5 8.00065 12.5C7.63246 12.5 7.33398 12.2015 7.33398 11.8334V7.83335C7.33398 7.46516 7.63246 7.16669 8.00065 7.16669Z" fill="black"/>
<path fill-rule="evenodd" clip-rule="evenodd" d="M5.33398 9.83335C5.33398 9.46516 5.63246 9.16669 6.00065 9.16669H10.0007C10.3688 9.16669 10.6673 9.46516 10.6673 9.83335C10.6673 10.2015 10.3688 10.5 10.0007 10.5H6.00065C5.63246 10.5 5.33398 10.2015 5.33398 9.83335Z" fill="black"/>
</svg>
