<svg width="94" height="93" viewBox="0 0 94 93" fill="none" xmlns="http://www.w3.org/2000/svg">
<path fill-rule="evenodd" clip-rule="evenodd" d="M41.3241 30.2112V1.97009C41.3241 0.882041 42.204 0 43.2893 0H48.2022C49.2876 0 50.1674 0.882042 50.1674 1.97009V30.2112C50.1674 40.8197 41.589 49.4196 31.007 49.4196H1.96517C0.879835 49.4196 0 48.5376 0 47.4495V42.5243C0 41.4362 0.879831 40.5542 1.96516 40.5542H31.007C36.705 40.5542 41.3241 35.9235 41.3241 30.2112Z" fill="black"/>
<path fill-rule="evenodd" clip-rule="evenodd" d="M52.6759 62.7888L52.6759 91.0299C52.6759 92.118 51.796 93 50.7107 93H45.7978C44.7124 93 43.8326 92.118 43.8326 91.0299V62.7888C43.8326 52.1803 52.411 43.5804 62.993 43.5804H92.0348C93.1202 43.5804 94 44.4624 94 45.5505V50.4757C94 51.5638 93.1202 52.4458 92.0348 52.4458L62.993 52.4458C57.295 52.4458 52.6759 57.0765 52.6759 62.7888Z" fill="black"/>
<path d="M14.3473 19.3255C13.5799 18.5561 13.5799 17.3087 14.3473 16.5393L17.1134 13.7664C17.8808 12.997 19.1251 12.997 19.8925 13.7664L42.3749 36.3051C43.1424 37.0745 43.1424 38.3219 42.3749 39.0912L39.6089 41.8642C38.8414 42.6336 37.5972 42.6336 36.8297 41.8642L14.3473 19.3255Z" fill="black"/>
<path d="M50.7006 55.7687C49.9332 54.9993 49.9332 53.752 50.7006 52.9826L53.4667 50.2096C54.2341 49.4402 55.4784 49.4402 56.2458 50.2096L78.7283 72.7484C79.4957 73.5177 79.4957 74.7651 78.7283 75.5345L75.9622 78.3075C75.1947 79.0769 73.9505 79.0769 73.183 78.3075L50.7006 55.7687Z" fill="black"/>
<path d="M75.6479 11.2959C76.4154 10.5265 77.6597 10.5265 78.4271 11.2959L81.1932 14.0689C81.9606 14.8382 81.9606 16.0856 81.1932 16.855L57.3212 40.7868L56.1581 38.4549C54.645 35.421 55.2381 31.7569 57.6306 29.3584L75.6479 11.2959Z" fill="black"/>
<path d="M36.9887 50.052L38.1518 52.384C39.6649 55.4178 39.0718 59.082 36.6793 61.4804L18.6619 79.543C17.8945 80.3123 16.6502 80.3123 15.8828 79.543L13.1167 76.77C12.3493 76.0006 12.3493 74.7532 13.1167 73.9838L36.9887 50.052Z" fill="black"/>
</svg>
