<svg width="16" height="17" viewBox="0 0 16 17" fill="none" xmlns="http://www.w3.org/2000/svg">
<path fill-rule="evenodd" clip-rule="evenodd" d="M3.33398 3.16668C3.15717 3.16668 2.9876 3.23691 2.86258 3.36194C2.73756 3.48696 2.66732 3.65653 2.66732 3.83334V13.1667C2.66732 13.3435 2.73756 13.5131 2.86258 13.6381C2.9876 13.7631 3.15717 13.8333 3.33398 13.8333H6.00065C6.36884 13.8333 6.66732 14.1318 6.66732 14.5C6.66732 14.8682 6.36884 15.1667 6.00065 15.1667H3.33398C2.80355 15.1667 2.29484 14.956 1.91977 14.5809C1.5447 14.2058 1.33398 13.6971 1.33398 13.1667V3.83334C1.33398 3.30291 1.5447 2.7942 1.91977 2.41913C2.29484 2.04406 2.80355 1.83334 3.33398 1.83334H6.00065C6.36884 1.83334 6.66732 2.13182 6.66732 2.50001C6.66732 2.8682 6.36884 3.16668 6.00065 3.16668H3.33398Z" fill="black"/>
<path fill-rule="evenodd" clip-rule="evenodd" d="M10.1953 4.69526C10.4556 4.43491 10.8777 4.43491 11.1381 4.69526L14.4714 8.0286C14.7318 8.28894 14.7318 8.71106 14.4714 8.9714L11.1381 12.3047C10.8777 12.5651 10.4556 12.5651 10.1953 12.3047C9.93491 12.0444 9.93491 11.6223 10.1953 11.3619L13.0572 8.5L10.1953 5.63807C9.93491 5.37772 9.93491 4.95561 10.1953 4.69526Z" fill="black"/>
<path fill-rule="evenodd" clip-rule="evenodd" d="M5.33398 8.50001C5.33398 8.13182 5.63246 7.83334 6.00065 7.83334H14.0007C14.3688 7.83334 14.6673 8.13182 14.6673 8.50001C14.6673 8.8682 14.3688 9.16668 14.0007 9.16668H6.00065C5.63246 9.16668 5.33398 8.8682 5.33398 8.50001Z" fill="black"/>
</svg>
