<svg width="16" height="17" viewBox="0 0 16 17" fill="none" xmlns="http://www.w3.org/2000/svg">
<g clip-path="url(#clip0_326_1564)">
<path fill-rule="evenodd" clip-rule="evenodd" d="M8.00065 7.16665C7.26427 7.16665 6.66732 7.7636 6.66732 8.49998C6.66732 9.23636 7.26427 9.83331 8.00065 9.83331C8.73703 9.83331 9.33398 9.23636 9.33398 8.49998C9.33398 7.7636 8.73703 7.16665 8.00065 7.16665ZM5.33398 8.49998C5.33398 7.02722 6.52789 5.83331 8.00065 5.83331C9.47341 5.83331 10.6673 7.02722 10.6673 8.49998C10.6673 9.97274 9.47341 11.1666 8.00065 11.1666C6.52789 11.1666 5.33398 9.97274 5.33398 8.49998Z" fill="black"/>
<path fill-rule="evenodd" clip-rule="evenodd" d="M8 1.83333C7.82319 1.83333 7.65362 1.90357 7.5286 2.0286C7.40357 2.15362 7.33333 2.32319 7.33333 2.5V2.61599C7.33196 2.96053 7.22986 3.29715 7.03963 3.58441C6.84939 3.87167 6.5793 4.09703 6.26262 4.23276C6.20625 4.25692 6.14695 4.27313 6.08641 4.28104C5.79865 4.38181 5.48888 4.40665 5.18733 4.35197C4.84 4.289 4.5195 4.12341 4.26716 3.87658L4.2619 3.87143L4.22193 3.8314C4.16001 3.76942 4.08623 3.71999 4.00529 3.68644C3.92436 3.65289 3.83761 3.63562 3.75 3.63562C3.66239 3.63562 3.57564 3.65289 3.49471 3.68644C3.41377 3.71999 3.34025 3.76916 3.27833 3.83114L3.27781 3.83167C3.21582 3.89358 3.16665 3.96711 3.1331 4.04804C3.09955 4.12897 3.08228 4.21572 3.08228 4.30333C3.08228 4.39094 3.09955 4.47769 3.1331 4.55863C3.16665 4.63956 3.21582 4.71308 3.27781 4.775L3.32327 4.82046C3.57011 5.07281 3.73566 5.39334 3.79864 5.74067C3.86037 6.08109 3.82075 6.43198 3.68497 6.74985C3.56126 7.07422 3.34465 7.35511 3.06203 7.55725C2.7737 7.76348 2.42999 7.8782 2.07559 7.88648L2.06 7.88667H2C1.82319 7.88667 1.65362 7.9569 1.5286 8.08193C1.40357 8.20695 1.33333 8.37652 1.33333 8.55333C1.33333 8.73014 1.40357 8.89971 1.5286 9.02474C1.65362 9.14976 1.82319 9.22 2 9.22H2.11599C2.46053 9.22137 2.79715 9.32347 3.08441 9.51371C3.37067 9.70329 3.59547 9.97215 3.73134 10.2874C3.87272 10.6095 3.91474 10.9665 3.85197 11.3127C3.789 11.66 3.62341 11.9805 3.37658 12.2328L3.37143 12.2381L3.3314 12.2781C3.26942 12.34 3.21999 12.4138 3.18644 12.4947C3.15289 12.5756 3.13562 12.6624 3.13562 12.75C3.13562 12.8376 3.15289 12.9244 3.18644 13.0053C3.21999 13.0862 3.26916 13.1598 3.33114 13.2217L3.33167 13.2222C3.39358 13.2842 3.46711 13.3333 3.54804 13.3669C3.62897 13.4004 3.71572 13.4177 3.80333 13.4177C3.89094 13.4177 3.97769 13.4004 4.05863 13.3669C4.13956 13.3333 4.21309 13.2842 4.275 13.2222L4.32046 13.1767C4.57281 12.9299 4.89334 12.7643 5.24067 12.7014C5.58108 12.6396 5.93197 12.6792 6.24985 12.815C6.57422 12.9387 6.85511 13.1553 7.05725 13.438C7.26348 13.7263 7.3782 14.07 7.38648 14.4244L7.38667 14.44V14.5C7.38667 14.6768 7.4569 14.8464 7.58193 14.9714C7.70695 15.0964 7.87652 15.1667 8.05333 15.1667C8.23014 15.1667 8.39971 15.0964 8.52474 14.9714C8.64976 14.8464 8.72 14.6768 8.72 14.5V14.3867L8.72001 14.384C8.72138 14.0395 8.82347 13.7029 9.01371 13.4156C9.2033 13.1293 9.4722 12.9045 9.78749 12.7686C10.1096 12.6273 10.4665 12.5853 10.8127 12.648C11.16 12.711 11.4805 12.8766 11.7328 13.1234L11.7381 13.1286L11.7781 13.1686C11.84 13.2306 11.9138 13.28 11.9947 13.3136C12.0756 13.3471 12.1624 13.3644 12.25 13.3644C12.3376 13.3644 12.4244 13.3471 12.5053 13.3136C12.5862 13.28 12.6598 13.2308 12.7217 13.1689L12.7222 13.1683C12.7842 13.1064 12.8333 13.0329 12.8669 12.952C12.9004 12.871 12.9177 12.7843 12.9177 12.6967C12.9177 12.6091 12.9004 12.5223 12.8669 12.4414C12.8333 12.3604 12.7842 12.2869 12.7222 12.225L12.6767 12.1795C12.4299 11.9272 12.2643 11.6067 12.2014 11.2593C12.1386 10.9132 12.1806 10.5562 12.322 10.2342C12.4578 9.91886 12.6826 9.64997 12.9689 9.46038C13.2562 9.27014 13.5928 9.16805 13.9373 9.16667L13.94 9.16666L14 9.16667C14.1768 9.16667 14.3464 9.09643 14.4714 8.9714C14.5964 8.84638 14.6667 8.67681 14.6667 8.5C14.6667 8.32319 14.5964 8.15362 14.4714 8.0286C14.3464 7.90357 14.1768 7.83333 14 7.83333H13.8867L13.884 7.83333C13.5395 7.83195 13.2029 7.72986 12.9156 7.53963C12.6283 7.34939 12.403 7.0793 12.2672 6.76262C12.2431 6.70625 12.2269 6.64695 12.219 6.58641C12.1182 6.29865 12.0933 5.98888 12.148 5.68733C12.211 5.34 12.3766 5.0195 12.6234 4.76716L12.6286 4.7619L12.6686 4.72193C12.7306 4.66001 12.78 4.58622 12.8136 4.50529C12.8471 4.42436 12.8644 4.33761 12.8644 4.25C12.8644 4.16239 12.8471 4.07564 12.8136 3.99471C12.78 3.91378 12.7308 3.84025 12.6689 3.77833L12.6683 3.77781C12.6064 3.71582 12.5329 3.66665 12.452 3.6331C12.371 3.59955 12.2843 3.58228 12.1967 3.58228C12.1091 3.58228 12.0223 3.59955 11.9414 3.6331C11.8604 3.66665 11.7869 3.71583 11.725 3.77781L11.6795 3.82327C11.4272 4.07011 11.1067 4.23566 10.7593 4.29864C10.4132 4.36141 10.0562 4.31939 9.73408 4.17801C9.41882 4.04213 9.14995 3.81734 8.96038 3.53108C8.77014 3.24382 8.66805 2.9072 8.66667 2.56266L8.66667 2.56V2.5C8.66667 2.32319 8.59643 2.15362 8.4714 2.0286C8.34638 1.90357 8.17681 1.83333 8 1.83333ZM12.9333 10.5L13.5432 10.7692C13.5083 10.8484 13.4979 10.9363 13.5133 11.0215C13.5286 11.1057 13.5685 11.1835 13.6279 11.2451L13.6645 11.2817C13.6646 11.2818 13.6644 11.2816 13.6645 11.2817C13.8503 11.4674 13.998 11.6881 14.0986 11.9308C14.1992 12.1736 14.251 12.4338 14.251 12.6967C14.251 12.9595 14.1992 13.2198 14.0986 13.4625C13.9979 13.7053 13.8504 13.9259 13.6645 14.1117L13.1933 13.64L13.665 14.1111C13.4793 14.2971 13.2587 14.4446 13.0159 14.5453C12.7731 14.6459 12.5128 14.6977 12.25 14.6977C11.9872 14.6977 11.7269 14.6459 11.4841 14.5453C11.2414 14.4447 11.021 14.2972 10.8353 14.1114C10.8352 14.1113 10.8353 14.1115 10.8353 14.1114L10.7984 14.0746C10.7369 14.0151 10.659 13.9752 10.5748 13.96C10.4896 13.9445 10.4017 13.9549 10.3225 13.9899L10.316 13.9928C10.2383 14.0261 10.172 14.0813 10.1254 14.1518C10.0789 14.222 10.0539 14.3042 10.0533 14.3883V14.5C10.0533 15.0304 9.84262 15.5391 9.46755 15.9142C9.09247 16.2893 8.58377 16.5 8.05333 16.5C7.5229 16.5 7.01419 16.2893 6.63912 15.9142C6.26405 15.5391 6.05333 15.0304 6.05333 14.5V14.4496C6.05017 14.3648 6.02218 14.2827 5.97276 14.2136C5.92218 14.1429 5.85149 14.089 5.76988 14.059C5.7567 14.0542 5.74367 14.0489 5.73082 14.0432C5.65161 14.0083 5.56374 13.9979 5.47855 14.0133C5.39428 14.0286 5.31645 14.0685 5.25487 14.1279L5.21833 14.1645C5.21825 14.1646 5.21842 14.1644 5.21833 14.1645C5.03264 14.3503 4.8119 14.498 4.56921 14.5986C4.32642 14.6992 4.06617 14.751 3.80333 14.751C3.5405 14.751 3.28025 14.6992 3.03745 14.5986C2.79489 14.498 2.5745 14.3507 2.38886 14.165C2.2029 13.9793 2.05539 13.7587 1.95474 13.5159C1.85409 13.2731 1.80228 13.0128 1.80228 12.75C1.80228 12.4872 1.85409 12.2269 1.95474 11.9841C2.05539 11.7413 2.2029 11.5207 2.38886 11.335L2.42541 11.2985C2.48486 11.2369 2.52475 11.159 2.54003 11.0748C2.55548 10.9896 2.54505 10.9017 2.51009 10.8225L2.5072 10.816C2.47391 10.7383 2.41867 10.672 2.34821 10.6254C2.27803 10.5789 2.19583 10.5539 2.11167 10.5533H2C1.46957 10.5533 0.960859 10.3426 0.585786 9.96755C0.210714 9.59247 0 9.08377 0 8.55333C0 8.0229 0.210714 7.51419 0.585786 7.13912C0.960859 6.76405 1.46957 6.55333 2 6.55333H2.05043C2.13522 6.55017 2.21728 6.52218 2.28637 6.47276C2.35709 6.42218 2.41096 6.35149 2.44098 6.26988C2.44582 6.2567 2.45109 6.24367 2.45676 6.23082C2.49172 6.15161 2.50215 6.06374 2.4867 5.97855C2.47142 5.89428 2.43152 5.81645 2.37206 5.75487L2.33552 5.71833C2.14957 5.53259 2.00205 5.31201 1.90141 5.06921C1.80076 4.82642 1.74895 4.56616 1.74895 4.30333C1.74895 4.0405 1.80076 3.78025 1.90141 3.53745C2.00201 3.29477 2.14943 3.07429 2.33526 2.8886C2.52095 2.70277 2.74144 2.55534 2.98412 2.45474C3.22692 2.35409 3.48717 2.30228 3.75 2.30228C4.01283 2.30228 4.27308 2.35409 4.51588 2.45474C4.75868 2.55539 4.97925 2.7029 5.165 2.88886L5.20154 2.9254C5.26312 2.98485 5.34095 3.02475 5.42521 3.04003C5.51041 3.05548 5.59828 3.04505 5.67749 3.01009C5.72018 2.99125 5.76462 2.97699 5.81005 2.96748C5.85653 2.93593 5.89665 2.89549 5.92796 2.84821C5.97444 2.77803 5.99947 2.69583 6 2.61167V2.5C6 1.96957 6.21071 1.46086 6.58579 1.08579C6.96086 0.710714 7.46957 0.5 8 0.5C8.53043 0.5 9.03914 0.710714 9.41421 1.08579C9.78929 1.46086 10 1.96957 10 2.5V2.55833C10.0005 2.6425 10.0256 2.72469 10.072 2.79488C10.1187 2.86534 10.1849 2.92062 10.2626 2.95391L10.2692 2.95672C10.3484 2.99168 10.4363 3.00215 10.5215 2.9867C10.6057 2.97142 10.6835 2.93152 10.7451 2.87207L10.7817 2.83552C10.9674 2.64957 11.188 2.50205 11.4308 2.40141C11.6736 2.30076 11.9338 2.24895 12.1967 2.24895C12.4595 2.24895 12.7198 2.30076 12.9625 2.40141C13.2053 2.50205 13.4259 2.64957 13.6117 2.83552C13.7974 3.02116 13.9447 3.24155 14.0453 3.48412C14.1459 3.72691 14.1977 3.98717 14.1977 4.25C14.1977 4.51283 14.1459 4.77309 14.0453 5.01588C13.9447 5.25856 13.7972 5.47905 13.6114 5.66474C13.6113 5.66482 13.6115 5.66465 13.6114 5.66474L13.5746 5.70154C13.5151 5.76312 13.4752 5.84095 13.46 5.92521C13.4445 6.01041 13.4549 6.09828 13.4899 6.17749C13.5088 6.22018 13.523 6.26462 13.5325 6.31004C13.5641 6.35653 13.6045 6.39665 13.6518 6.42796C13.722 6.47444 13.8042 6.49947 13.8883 6.5H14C14.5304 6.5 15.0391 6.71071 15.4142 7.08579C15.7893 7.46086 16 7.96957 16 8.5C16 9.03043 15.7893 9.53914 15.4142 9.91421C15.0391 10.2893 14.5304 10.5 14 10.5H13.9417C13.8575 10.5005 13.7753 10.5256 13.7051 10.572C13.6347 10.6187 13.5794 10.6849 13.5461 10.7626L12.9333 10.5Z" fill="black"/>
</g>
<defs>
<clipPath id="clip0_326_1564">
<rect width="16" height="16" fill="white" transform="translate(0 0.5)"/>
</clipPath>
</defs>
</svg>
