<svg width="16" height="17" viewBox="0 0 16 17" fill="none" xmlns="http://www.w3.org/2000/svg">
<path fill-rule="evenodd" clip-rule="evenodd" d="M2.97631 10.8096C3.60143 10.1845 4.44928 9.83331 5.33333 9.83331H10.6667C11.5507 9.83331 12.3986 10.1845 13.0237 10.8096C13.6488 11.4347 14 12.2826 14 13.1666V14.5C14 14.8682 13.7015 15.1666 13.3333 15.1666C12.9651 15.1666 12.6667 14.8682 12.6667 14.5V13.1666C12.6667 12.6362 12.456 12.1275 12.0809 11.7524C11.7058 11.3774 11.1971 11.1666 10.6667 11.1666H5.33333C4.8029 11.1666 4.29419 11.3774 3.91912 11.7524C3.54405 12.1275 3.33333 12.6362 3.33333 13.1666V14.5C3.33333 14.8682 3.03486 15.1666 2.66667 15.1666C2.29848 15.1666 2 14.8682 2 14.5V13.1666C2 12.2826 2.35119 11.4347 2.97631 10.8096Z" fill="black"/>
<path fill-rule="evenodd" clip-rule="evenodd" d="M7.99935 3.16665C6.89478 3.16665 5.99935 4.06208 5.99935 5.16665C5.99935 6.27122 6.89478 7.16665 7.99935 7.16665C9.10392 7.16665 9.99935 6.27122 9.99935 5.16665C9.99935 4.06208 9.10392 3.16665 7.99935 3.16665ZM4.66602 5.16665C4.66602 3.3257 6.1584 1.83331 7.99935 1.83331C9.8403 1.83331 11.3327 3.3257 11.3327 5.16665C11.3327 7.0076 9.8403 8.49998 7.99935 8.49998C6.1584 8.49998 4.66602 7.0076 4.66602 5.16665Z" fill="black"/>
</svg>
