<svg width="125" height="37" viewBox="0 0 125 37" fill="none" xmlns="http://www.w3.org/2000/svg">
<path fill-rule="evenodd" clip-rule="evenodd" d="M14.4046 14.4352V4.61568C14.4046 4.23735 14.7113 3.93066 15.0896 3.93066H16.8022C17.1805 3.93066 17.4872 4.23735 17.4872 4.61568V14.4352C17.4872 18.1239 14.497 21.1141 10.8083 21.1141H0.685011C0.30669 21.1141 0 20.8074 0 20.4291V18.7166C0 18.3382 0.306689 18.0316 0.68501 18.0316H10.8083C12.7945 18.0316 14.4046 16.4214 14.4046 14.4352Z" fill="black"/>
<path fill-rule="evenodd" clip-rule="evenodd" d="M18.3616 25.7627L18.3616 35.5822C18.3616 35.9605 18.0549 36.2672 17.6766 36.2672H15.964C15.5857 36.2672 15.279 35.9605 15.279 35.5822V25.7627C15.279 22.074 18.2693 19.0838 21.9579 19.0838H32.0812C32.4595 19.0838 32.7662 19.3905 32.7662 19.7688V21.4813C32.7662 21.8597 32.4595 22.1663 32.0812 22.1663H21.9579C19.9717 22.1663 18.3616 23.7765 18.3616 25.7627Z" fill="black"/>
<path d="M5.00113 10.6502C4.73362 10.3827 4.73362 9.94899 5.00113 9.68148L5.96532 8.71729C6.23283 8.44978 6.66656 8.44978 6.93407 8.71729L14.7709 16.5541C15.0384 16.8217 15.0384 17.2554 14.7709 17.5229L13.8067 18.4871C13.5392 18.7546 13.1055 18.7546 12.838 18.4871L5.00113 10.6502Z" fill="black"/>
<path d="M17.6731 23.3217C17.4055 23.0542 17.4055 22.6205 17.6731 22.353L18.6372 21.3888C18.9048 21.1213 19.3385 21.1213 19.606 21.3888L27.4428 29.2256C27.7103 29.4932 27.7103 29.9269 27.4428 30.1944L26.4786 31.1586C26.2111 31.4261 25.7774 31.4261 25.5099 31.1586L17.6731 23.3217Z" fill="black"/>
<path d="M26.3691 7.8583C26.6366 7.59078 27.0703 7.59078 27.3379 7.8583L28.302 8.82248C28.5696 9.08999 28.5696 9.52372 28.302 9.79123L19.9808 18.1124L19.5754 17.3016C19.048 16.2467 19.2547 14.9727 20.0887 14.1387L26.3691 7.8583Z" fill="black"/>
<path d="M12.8934 21.334L13.2988 22.1448C13.8263 23.1997 13.6195 24.4738 12.7855 25.3077L6.50511 31.5882C6.2376 31.8557 5.80387 31.8557 5.53636 31.5882L4.57218 30.624C4.30466 30.3565 4.30466 29.9227 4.57218 29.6552L12.8934 21.334Z" fill="black"/>
<path d="M56.4863 25.4298L52.9461 13.999H50.4259L46.8857 25.3998L43.5855 13.999H40.8553L45.5056 29H48.1758L51.686 17.8993L55.1962 29H57.8664L62.5167 13.999H59.7865L56.4863 25.4298ZM66.5229 11.2689C67.483 11.2689 68.263 10.4888 68.263 9.52874C68.263 8.56868 67.483 7.75863 66.5229 7.75863C65.5328 7.75863 64.7528 8.56868 64.7528 9.52874C64.7528 10.4888 65.5328 11.2689 66.5229 11.2689ZM67.813 29V13.999H65.2028V29H67.813ZM74.0159 18.0493C74.0159 16.7592 75.216 16.0392 76.686 16.0392C78.2762 16.0392 79.3562 16.6692 79.8963 17.9593L82.0864 16.7292C81.1263 14.7791 79.1162 13.609 76.686 13.609C75.1559 13.609 73.8959 14.029 72.8758 14.8691C71.8857 15.7091 71.3757 16.7892 71.3757 18.0793C71.3757 21.2595 74.4359 22.0396 76.8061 22.6696C78.4562 23.0596 79.7762 23.7197 79.7762 24.8897C79.7762 26.2998 78.5162 26.9299 76.8061 26.9299C74.9759 26.9299 73.5658 26.0298 73.0858 24.5897L70.8357 25.8798C71.7057 28.0099 73.8959 29.39 76.8061 29.39C78.4562 29.39 79.7762 28.97 80.8263 28.1599C81.8764 27.3499 82.4164 26.2398 82.4164 24.8897C82.4464 21.6795 79.3262 20.8095 76.9861 20.2994C75.336 19.8494 74.0159 19.2194 74.0159 18.0493ZM92.8308 13.609C90.6407 13.609 89.0206 14.4491 87.9705 16.1592V7.99865H85.3604V29H87.9705V21.0495C87.9705 17.6893 89.7106 16.0992 92.3208 16.0992C94.631 16.0992 96.041 17.5093 96.041 19.9394V29H98.6512V19.7894C98.6512 15.9792 96.3411 13.609 92.8308 13.609ZM108.357 29H107.61C106.878 29 106.194 28.8633 105.559 28.5898C104.925 28.3164 104.368 27.9452 103.889 27.4765C103.411 26.9979 103.035 26.4412 102.761 25.8064C102.488 25.1619 102.351 24.4782 102.351 23.7555V6.49855H105.354V23.7555C105.354 24.068 105.413 24.361 105.53 24.6345C105.647 24.8982 105.808 25.1326 106.014 25.3377C106.219 25.5427 106.458 25.7039 106.731 25.8211C107.005 25.9383 107.298 25.9969 107.61 25.9969H108.357V29ZM116.942 25.7598L111.842 13.999H109.052L115.592 28.94L115.322 29.51C114.452 31.7002 113.102 32.7202 111.272 32.5702V35.0004C114.272 35.2104 116.642 33.3203 117.932 29.9301L124.053 13.999H121.262L116.942 25.7598Z" fill="black"/>
</svg>
