<svg width="151" height="37" viewBox="0 0 151 37" fill="none" xmlns="http://www.w3.org/2000/svg">
<path fill-rule="evenodd" clip-rule="evenodd" d="M14.4046 14.4352V4.61568C14.4046 4.23735 14.7113 3.93066 15.0896 3.93066H16.8022C17.1805 3.93066 17.4872 4.23735 17.4872 4.61568V14.4352C17.4872 18.1239 14.497 21.1141 10.8083 21.1141H0.685011C0.30669 21.1141 0 20.8074 0 20.4291V18.7166C0 18.3382 0.306689 18.0316 0.68501 18.0316H10.8083C12.7945 18.0316 14.4046 16.4214 14.4046 14.4352Z" fill="black"/>
<path fill-rule="evenodd" clip-rule="evenodd" d="M18.3616 25.7627L18.3616 35.5822C18.3616 35.9605 18.0549 36.2672 17.6766 36.2672H15.964C15.5857 36.2672 15.279 35.9605 15.279 35.5822V25.7627C15.279 22.074 18.2693 19.0838 21.9579 19.0838H32.0812C32.4595 19.0838 32.7662 19.3905 32.7662 19.7688V21.4813C32.7662 21.8597 32.4595 22.1663 32.0812 22.1663H21.9579C19.9717 22.1663 18.3616 23.7765 18.3616 25.7627Z" fill="black"/>
<path d="M5.00113 10.6502C4.73362 10.3827 4.73362 9.94899 5.00113 9.68148L5.96532 8.71729C6.23283 8.44978 6.66656 8.44978 6.93407 8.71729L14.7709 16.5541C15.0384 16.8217 15.0384 17.2554 14.7709 17.5229L13.8067 18.4871C13.5392 18.7546 13.1055 18.7546 12.838 18.4871L5.00113 10.6502Z" fill="black"/>
<path d="M17.6731 23.3217C17.4055 23.0542 17.4055 22.6205 17.6731 22.353L18.6372 21.3888C18.9048 21.1213 19.3385 21.1213 19.606 21.3888L27.4428 29.2256C27.7103 29.4932 27.7103 29.9269 27.4428 30.1944L26.4786 31.1586C26.2111 31.4261 25.7774 31.4261 25.5099 31.1586L17.6731 23.3217Z" fill="black"/>
<path d="M26.3691 7.8583C26.6366 7.59078 27.0703 7.59078 27.3379 7.8583L28.302 8.82248C28.5696 9.08999 28.5696 9.52372 28.302 9.79123L19.9808 18.1124L19.5754 17.3016C19.048 16.2467 19.2547 14.9727 20.0887 14.1387L26.3691 7.8583Z" fill="black"/>
<path d="M12.8934 21.334L13.2988 22.1448C13.8263 23.1997 13.6195 24.4738 12.7855 25.3077L6.50511 31.5882C6.2376 31.8557 5.80387 31.8557 5.53636 31.5882L4.57218 30.624C4.30466 30.3565 4.30466 29.9227 4.57218 29.6552L12.8934 21.334Z" fill="black"/>
<path d="M59.7865 12.999H62.5167L57.8664 28H55.1962L51.686 16.8993L48.1758 28H45.5056L40.8553 12.999H43.5855L46.8857 24.3998L50.4259 12.999H52.9461L56.4863 24.4298L59.7865 12.999ZM66.5229 10.2689C66.0229 10.2689 65.6028 10.0988 65.2628 9.75882C64.9228 9.4188 64.7528 9.00878 64.7528 8.52874C64.7528 8.04871 64.9228 7.63869 65.2628 7.29867C65.6028 6.93864 66.0229 6.75863 66.5229 6.75863C67.0029 6.75863 67.4129 6.93864 67.753 7.29867C68.093 7.63869 68.263 8.04871 68.263 8.52874C68.263 9.00878 68.093 9.4188 67.753 9.75882C67.4129 10.0988 67.0029 10.2689 66.5229 10.2689ZM65.2028 28V12.999H67.813V28H65.2028ZM74.0159 17.0493C74.0159 17.6293 74.3059 18.0994 74.8859 18.4594C75.466 18.7994 76.166 19.0794 76.9861 19.2994C77.8061 19.4995 78.6262 19.7395 79.4462 20.0195C80.2663 20.2795 80.9663 20.7395 81.5464 21.3996C82.1264 22.0396 82.4164 22.8697 82.4164 23.8897C82.4164 25.2498 81.8864 26.3399 80.8263 27.1599C79.7862 27.98 78.4462 28.39 76.8061 28.39C75.346 28.39 74.0959 28.07 73.0558 27.43C72.0157 26.7899 71.2757 25.9399 70.8357 24.8798L73.0858 23.5897C73.3258 24.3098 73.7759 24.8798 74.4359 25.2998C75.0959 25.7199 75.886 25.9299 76.8061 25.9299C77.6661 25.9299 78.3762 25.7699 78.9362 25.4498C79.4962 25.1098 79.7762 24.5898 79.7762 23.8897C79.7762 23.3097 79.4862 22.8497 78.9062 22.5096C78.3262 22.1496 77.6261 21.8696 76.8061 21.6696C75.986 21.4496 75.1659 21.1996 74.3459 20.9195C73.5258 20.6395 72.8258 20.1795 72.2458 19.5395C71.6657 18.8994 71.3757 18.0794 71.3757 17.0793C71.3757 15.7792 71.8757 14.7091 72.8758 13.8691C73.8959 13.029 75.1659 12.609 76.686 12.609C77.9061 12.609 78.9862 12.889 79.9263 13.4491C80.8863 13.9891 81.6064 14.7491 82.0864 15.7292L79.8963 16.9593C79.3562 15.6792 78.2862 15.0392 76.686 15.0392C75.946 15.0392 75.316 15.2192 74.7959 15.5792C74.2759 15.9192 74.0159 16.4093 74.0159 17.0493ZM92.8308 12.609C94.5909 12.609 96.001 13.169 97.0611 14.2891C98.1212 15.3892 98.6512 16.8893 98.6512 18.7894V28H96.041V18.9394C96.041 17.7193 95.711 16.7793 95.051 16.1192C94.3909 15.4392 93.4809 15.0992 92.3208 15.0992C91.0207 15.0992 89.9707 15.5092 89.1706 16.3292C88.3705 17.1293 87.9705 18.3694 87.9705 20.0495V28H85.3604V6.99865H87.9705V15.1592C89.0306 13.4591 90.6507 12.609 92.8308 12.609ZM112.443 12.999H115.234L109.113 28.9301C108.473 30.6302 107.573 31.9203 106.413 32.8003C105.273 33.7004 103.953 34.1004 102.453 34.0004V31.5702C104.293 31.7102 105.643 30.6902 106.503 28.51L106.773 27.94L100.233 12.999H103.023L108.123 24.7598L112.443 12.999ZM129.488 26.1099C127.948 27.63 126.078 28.39 123.878 28.39C121.678 28.39 119.807 27.63 118.267 26.1099C116.747 24.5898 115.987 22.7197 115.987 20.4995C115.987 18.2794 116.747 16.4093 118.267 14.8892C119.807 13.3691 121.678 12.609 123.878 12.609C126.078 12.609 127.948 13.3691 129.488 14.8892C131.028 16.4093 131.798 18.2794 131.798 20.4995C131.798 22.7197 131.028 24.5898 129.488 26.1099ZM123.878 25.8399C125.378 25.8399 126.638 25.3298 127.658 24.3098C128.678 23.2897 129.188 22.0196 129.188 20.4995C129.188 18.9794 128.678 17.7093 127.658 16.6893C126.638 15.6692 125.378 15.1592 123.878 15.1592C122.398 15.1592 121.148 15.6692 120.127 16.6893C119.107 17.7093 118.597 18.9794 118.597 20.4995C118.597 22.0196 119.107 23.2897 120.127 24.3098C121.148 25.3298 122.398 25.8399 123.878 25.8399ZM145.226 12.999H147.836V28H145.226V25.8399C144.166 27.54 142.546 28.39 140.366 28.39C138.606 28.39 137.195 27.84 136.135 26.7399C135.075 25.6198 134.545 24.1097 134.545 22.2096V12.999H137.155V22.0596C137.155 23.2797 137.485 24.2298 138.145 24.9098C138.806 25.5698 139.716 25.8999 140.876 25.8999C142.176 25.8999 143.226 25.4998 144.026 24.6998C144.826 23.8797 145.226 22.6297 145.226 20.9495V12.999Z" fill="black"/>
</svg>
